<?xml version="1.0"?>
<svg xmlns="http://www.w3.org/2000/svg" xmlns:xlink="http://www.w3.org/1999/xlink" xmlns:svgjs="http://svgjs.com/svgjs" version="1.1" width="512" height="512" x="0" y="0" viewBox="0 0 512 512" style="enable-background:new 0 0 512 512" xml:space="preserve"><g><path xmlns="http://www.w3.org/2000/svg" d="m256 512c-57.244 0-111.017-22.303-151.412-62.801-40.36-40.463-62.588-94.286-62.588-151.554 0-33.012 16.116-76.2 49.271-132.034 23.035-38.792 53.619-82.459 90.902-129.787 17.934-22.767 44.844-35.824 73.827-35.824s55.893 13.057 73.827 35.823c37.283 47.328 67.867 90.995 90.902 129.787 33.155 55.834 49.271 99.023 49.271 132.035 0 57.269-22.228 111.092-62.588 151.555-40.395 40.497-94.168 62.8-151.412 62.8zm0-472c-16.648 0-32.104 7.5-42.405 20.575-83.631 106.163-131.595 192.571-131.595 237.07 0 96.139 78.056 174.355 174 174.355s174-78.216 174-174.355c0-44.498-47.964-130.906-131.595-237.069-10.301-13.076-25.757-20.576-42.405-20.576zm-54 183c13.807 0 25 11.193 25 25s-11.193 25-25 25-25-11.193-25-25 11.193-25 25-25zm84 138c0 13.807 11.193 25 25 25s25-11.193 25-25-11.193-25-25-25-25 11.193-25 25zm-73.567 18.846 118-123c7.646-7.971 7.384-20.632-.587-28.278-7.971-7.647-20.633-7.384-28.278.587l-118 123c-7.646 7.971-7.384 20.632.587 28.278 3.877 3.72 8.863 5.567 13.843 5.567 5.257 0 10.508-2.061 14.435-6.154z" fill="#ffffff" data-original="#000000" style=""/></g></svg>
