<?xml version="1.0"?>
<svg xmlns="http://www.w3.org/2000/svg" xmlns:xlink="http://www.w3.org/1999/xlink" xmlns:svgjs="http://svgjs.com/svgjs" version="1.1" width="512" height="512" x="0" y="0" viewBox="0 0 512 512" style="enable-background:new 0 0 512 512" xml:space="preserve" class=""><g><path xmlns="http://www.w3.org/2000/svg" d="m465.977 419c-14.307 0-28.94-6.413-40.149-17.594l-.497-.496c-6.559-6.542-17.233-6.542-23.793.002l-.499.498c-22.133 22.081-58.154 22.081-80.292-.004l-.49-.489c-6.564-6.548-17.239-6.55-23.8-.004l-.499.498c-22.134 22.081-58.155 22.081-80.292-.004l-.491-.489c-6.564-6.548-17.239-6.55-23.8-.004l-.499.498c-22.133 22.081-58.154 22.081-80.292-.004l-.369-.369c-3.178-3.17-7.402-4.914-11.898-4.914-.014 0-.028 0-.042 0-4.512.011-8.743 1.775-11.913 4.969-10.837 10.911-25.214 16.906-40.374 16.906-14.991-.009-29.236-5.99-40.113-16.841-7.82-7.801-7.834-20.465-.034-28.285 7.802-7.82 20.465-7.834 28.285-.034 3.284 3.276 7.616 5.157 11.887 5.159h.01c4.449 0 8.694-1.808 11.955-5.092 10.71-10.787 24.988-16.748 40.202-16.784h.14c15.162 0 29.414 5.89 40.144 16.594l.37.369c6.563 6.547 17.238 6.546 23.797.002l.499-.498c22.134-22.081 58.155-22.081 80.293.004l.49.489c6.565 6.55 17.239 6.549 23.799.004l.499-.498c22.134-22.081 58.155-22.081 80.293.004l.49.489c6.565 6.55 17.239 6.549 23.8.004l.499-.498c22.134-22.081 58.155-22.082 80.292.004l.497.496c3.653 3.644 8.212 5.91 11.896 5.91 3.531 0 8.09-2.36 11.897-6.159 7.82-7.8 20.484-7.786 28.285.034s7.786 20.483-.034 28.285c-11.366 11.339-25.999 17.842-40.149 17.842zm.035 93c14.773-.009 29.394-6.147 40.113-16.841 7.82-7.801 7.835-20.465.034-28.284-7.801-7.82-20.465-7.834-28.284-.034-3.284 3.276-7.617 5.157-11.887 5.159-.004 0-.007 0-.011 0-4.497 0-8.723-1.745-11.896-4.91l-.497-.496c-22.138-22.085-58.159-22.085-80.292-.004l-.499.498c-6.561 6.545-17.235 6.545-23.8-.004l-.49-.489c-22.138-22.085-58.159-22.085-80.293-.004l-.499.498c-6.56 6.545-17.234 6.545-23.799-.004l-.49-.489c-22.138-22.085-58.159-22.085-80.293-.004l-.499.498c-6.559 6.544-17.234 6.545-23.797-.002l-.37-.369c-10.73-10.704-24.982-16.594-40.144-16.594-.046 0-.093 0-.14 0-15.214.036-29.492 5.997-40.202 16.784-3.261 3.283-7.506 5.091-11.954 5.091-.003 0-.007 0-.01 0-4.271-.002-8.603-1.883-11.887-5.159-7.82-7.801-20.482-7.786-28.285.034-7.801 7.82-7.786 20.483.034 28.285 10.877 10.85 25.122 16.831 40.113 16.84h.035c15.186 0 29.511-6.004 40.339-16.908 3.17-3.193 7.401-4.958 11.913-4.969h.042c4.496 0 8.72 1.744 11.898 4.914l.369.369c22.138 22.084 58.159 22.084 80.292.004l.499-.498c6.561-6.545 17.236-6.544 23.8.004l.491.489c22.137 22.084 58.158 22.084 80.292.004l.499-.498c6.562-6.545 17.236-6.544 23.8.004l.49.489c22.138 22.084 58.159 22.084 80.292.004l.499-.498c6.56-6.545 17.234-6.544 23.793-.002l.497.496c10.729 10.704 24.985 16.596 40.148 16.596zm-210.532-212.036c-16.645 0-33.283-6.335-45.95-19.002l-31.705-31.853c-7.792-7.829-7.763-20.492.066-28.285 7.83-7.791 20.493-7.762 28.285.066l31.672 31.82c9.711 9.712 25.57 9.714 35.317-.028l31.664-31.795c7.794-7.826 20.457-7.854 28.284-.059 7.827 7.794 7.853 20.458.059 28.284l-31.697 31.828c-12.69 12.685-29.346 19.024-45.995 19.024zm20.52-93.964v-186c0-11.046-8.954-20-20-20s-20 8.954-20 20v186c0 11.046 8.954 20 20 20s20-8.954 20-20z" fill="#ffffff" data-original="#000000" style="" class=""/></g></svg>
