<?xml version="1.0"?>
<svg xmlns="http://www.w3.org/2000/svg" xmlns:xlink="http://www.w3.org/1999/xlink" xmlns:svgjs="http://svgjs.com/svgjs" version="1.1" width="512" height="512" x="0" y="0" viewBox="0 0 512.037 512.037" style="enable-background:new 0 0 512 512" xml:space="preserve"><g><path xmlns="http://www.w3.org/2000/svg" d="m20.037 512.03c-11.046 0-20-8.954-20-20v-243c0-11.046 8.954-20 20-20s20 8.954 20 20v243c0 11.045-8.954 20-20 20zm155.914-312.5c12.054-35.072 12.092-71.629.115-108.656-3.4-10.51-14.676-16.273-25.185-12.874-10.51 3.399-16.273 14.675-12.874 25.185 9.383 29.007 9.42 56.269.115 83.344-3.59 10.446 1.968 21.825 12.414 25.415 2.154.74 4.345 1.091 6.502 1.091 8.304 0 16.063-5.212 18.913-13.505zm-12.313 89.546 285.335-40.542c.088-.013.176-.026.264-.04 24.607-3.832 44.873-20.813 52.887-44.317 6.578-19.288 9.913-36.86 9.913-52.228 0-15.979-3.606-34.817-10.719-55.994-7.636-22.733-27.029-39.684-50.612-44.238-.107-.021-.214-.041-.322-.06l-284.783-50.173c-29.441-5.445-59.166 4.366-79.536 26.261l-69.71 74.93c-21.806 23.439-21.806 60.16 0 83.599l70.744 76.04c16.577 17.818 39.689 27.718 63.663 27.718 4.274 0 8.578-.315 12.876-.956zm-117.997-159.155 69.71-74.93c11.01-11.835 27.095-17.133 43.026-14.166.063.012.126.023.19.035l284.694 50.159c9.392 1.865 17.1 8.625 20.139 17.672 5.65 16.823 8.637 31.781 8.637 43.258 0 10.812-2.688 24.408-7.772 39.318-3.187 9.347-11.252 16.114-21.067 17.685l-285.261 40.532c-.052.007-.104.015-.155.023-15.367 2.304-30.841-3.092-41.398-14.439l-70.743-76.04c-7.593-8.161-7.593-20.946 0-29.107zm196.398 71.114c-2.157 0-4.349-.351-6.502-1.091-10.446-3.59-16.003-14.969-12.413-25.415 6.614-19.244 6.577-38.656-.115-59.344-3.399-10.51 2.364-21.785 12.874-25.185 10.509-3.398 21.785 2.365 25.185 12.874 9.324 28.824 9.285 57.307-.115 84.656-2.852 8.293-10.611 13.505-18.914 13.505zm102.912-29.505c5.419-15.768 5.458-32.138.115-48.656-3.4-10.51-14.676-16.272-25.185-12.874-10.51 3.399-16.273 14.675-12.874 25.185 2.655 8.208 2.693 15.844.115 23.344-3.59 10.446 1.968 21.825 12.414 25.415 2.154.74 4.345 1.091 6.502 1.091 8.304 0 16.064-5.213 18.913-13.505zm82.581-9.035c1.986-8.668 2.004-17.646.055-26.682-2.329-10.797-12.97-17.663-23.767-15.334s-17.663 12.969-15.334 23.767c.714 3.313.732 6.361.055 9.318-2.466 10.767 4.262 21.494 15.029 23.961 1.503.344 3.005.509 4.484.509 9.118 0 17.356-6.274 19.478-15.539z" fill="#ffffff" data-original="#000000" style=""/></g></svg>
